<svg xmlns="http://www.w3.org/2000/svg" viewBox="0 0 127 50"><defs><style>.a{fill:#fff;fill-rule:evenodd;}.b{isolation:isolate;}</style></defs><path class="a" d="M25,0h77a25,25,0,0,1,25,25h0a25,25,0,0,1-25,25H25A25,25,0,0,1,0,25H0A25,25,0,0,1,25,0Z"/><g class="b"><g class="b"><path d="M29.9932,23.59v2.4053h4.2119v1.6895H29.9932V31h-2.106V21.9h6.877V23.59Z"/><path d="M36.1943,21.9H38.3V31h-2.106Z"/><path d="M48.8037,21.9V31h-1.729l-4.5366-5.5254V31h-2.08V21.9H42.2l4.5244,5.5244V21.9Z"/><path d="M56.9546,29.05H52.73L51.9238,31H49.7656l4.0562-9.1h2.08L59.9707,31h-2.21Zm-.6626-1.5986-1.4434-3.4844-1.4428,3.4844Z"/><path d="M60.92,21.9h2.106v7.3838h4.563V31H60.92Z"/><path d="M68.7715,21.9h2.1064V31H68.7715Z"/><path d="M80.4072,29.2842V31h-7.956V29.6348l4.9912-6.0186H72.5547V21.9h7.6572v1.3642l-4.98,6.02Z"/><path d="M87.751,29.05H83.5264L82.7207,31H80.5625l4.0557-9.1h2.08L90.7676,31h-2.21Zm-.6621-1.5986-1.4434-3.4844-1.4434,3.4844Z"/><path d="M97.5146,31,95.76,28.4648H93.8223V31H91.7168V21.9h3.9385a5.0571,5.0571,0,0,1,2.1.4023,3.1152,3.1152,0,0,1,1.3711,1.1446,3.1469,3.1469,0,0,1,.4814,1.7548,2.9648,2.9648,0,0,1-1.872,2.8731L99.7764,31Zm-.5332-6.9746a2.2148,2.2148,0,0,0-1.4433-.4092H93.8223v3.1719h1.7158a2.1878,2.1878,0,0,0,1.4433-.416,1.64,1.64,0,0,0,0-2.3467Z"/></g></g></svg>