<svg xmlns="http://www.w3.org/2000/svg" viewBox="0 0 127 50"><defs><style>.a{fill:none;stroke:#fff;}.b{isolation:isolate;}.c{fill:#fff;}</style></defs><path class="a" d="M25,.5h77A24.5,24.5,0,0,1,126.5,25h0A24.5,24.5,0,0,1,102,49.5H25A24.5,24.5,0,0,1,.5,25h0A24.5,24.5,0,0,1,25,.5Z"/><g class="b"><g class="b"><path class="c" d="M29.9932,23.59v2.4053h4.2119v1.6895H29.9932V31h-2.106V21.9h6.877V23.59Z"/><path class="c" d="M36.1943,21.9H38.3V31h-2.106Z"/><path class="c" d="M48.8037,21.9V31h-1.729l-4.5366-5.5254V31h-2.08V21.9H42.2l4.5244,5.5244V21.9Z"/><path class="c" d="M56.9546,29.05H52.73L51.9238,31H49.7656l4.0562-9.1h2.08L59.9707,31h-2.21Zm-.6626-1.5986-1.4434-3.4844-1.4428,3.4844Z"/><path class="c" d="M60.92,21.9h2.106v7.3838h4.563V31H60.92Z"/><path class="c" d="M68.7715,21.9H70.877V31H68.7715Z"/><path class="c" d="M80.4062,29.2842V31H72.45V29.6348l4.9922-6.0186H72.5547V21.9h7.6562v1.3642l-4.9785,6.02Z"/><path class="c" d="M87.751,29.05H83.5264L82.72,31H80.5615l4.0567-9.1h2.08L90.7666,31h-2.21Zm-.6631-1.5986-1.4434-3.4844-1.4424,3.4844Z"/><path class="c" d="M97.5137,31l-1.7549-2.5352H93.8223V31H91.7158V21.9h3.9395a5.06,5.06,0,0,1,2.1.4023,3.12,3.12,0,0,1,1.3711,1.1446,3.155,3.155,0,0,1,.4814,1.7548,2.9685,2.9685,0,0,1-1.872,2.8731L99.7764,31Zm-.5323-6.9746a2.2165,2.2165,0,0,0-1.4433-.4092H93.8223v3.1719h1.7158a2.1894,2.1894,0,0,0,1.4433-.416,1.6423,1.6423,0,0,0,0-2.3467Z"/></g></g></svg>