<svg xmlns="http://www.w3.org/2000/svg" viewBox="0 0 127 50"><defs><style>.a{fill:none;stroke:#572ee5;}.b{isolation:isolate;}.c{fill:#572ee5;}</style></defs><path class="a" d="M25,.5h77A24.5,24.5,0,0,1,126.5,25h0A24.5,24.5,0,0,1,102,49.5H25A24.5,24.5,0,0,1,.5,25h0A24.5,24.5,0,0,1,25,.5Z"/><g class="b"><g class="b"><path class="c" d="M28.87,30.55a4.47,4.47,0,0,1-1.77-1.68,4.83,4.83,0,0,1,0-4.84,4.47,4.47,0,0,1,1.77-1.68,5.58,5.58,0,0,1,4.66-.19,4.37,4.37,0,0,1,1.61,1.2L33.79,24.6a2.91,2.91,0,0,0-2.29-1.06,3,3,0,0,0-1.51.37,2.62,2.62,0,0,0-1,1,3.27,3.27,0,0,0,0,3,2.62,2.62,0,0,0,1,1,3,3,0,0,0,1.51.37,2.9,2.9,0,0,0,2.29-1.08l1.35,1.25a4.29,4.29,0,0,1-1.61,1.21,5.36,5.36,0,0,1-2.15.42A5.24,5.24,0,0,1,28.87,30.55Z"/><path class="c" d="M38.21,30.54a4.43,4.43,0,0,1-1.78-1.68,4.86,4.86,0,0,1,0-4.82,4.43,4.43,0,0,1,1.78-1.68,5.57,5.57,0,0,1,5.11,0,4.63,4.63,0,0,1,0,8.18,5.57,5.57,0,0,1-5.11,0Zm4-1.55a2.59,2.59,0,0,0,1-1,3.27,3.27,0,0,0,0-3,2.59,2.59,0,0,0-1-1,3,3,0,0,0-2.91,0,2.73,2.73,0,0,0-1,1,3.27,3.27,0,0,0,0,3,2.73,2.73,0,0,0,1,1,3,3,0,0,0,2.91,0Z"/><path class="c" d="M55.61,31V25.54L52.92,30H52l-2.66-4.38V31h-2V21.9h1.74l3.41,5.65,3.35-5.65h1.73l0,9.1Z"/><path class="c" d="M66.79,29.31V31h-7V21.9h6.87v1.69H61.84v2h4.22V27.2H61.84v2.11Z"/><path class="c" d="M76.82,21.9V31H75.09l-4.54-5.53V31H68.47V21.9h1.74l4.53,5.52V21.9Z"/><path class="c" d="M86.34,29.28V31h-8V29.63l5-6H78.49V21.9h7.66v1.36l-5,6Z"/><path class="c" d="M93.69,29.05H89.46L88.66,31H86.5l4.06-9.1h2.08L96.71,31H94.5ZM93,27.45,91.58,24l-1.44,3.48Z"/><path class="c" d="M103.45,31l-1.75-2.54H99.76V31H97.65V21.9h3.94a5,5,0,0,1,2.1.4,3.06,3.06,0,0,1,1.37,1.15,3.12,3.12,0,0,1-1.39,4.63l2,2.92Zm-.53-7a2.17,2.17,0,0,0-1.44-.41H99.76v3.17h1.72a2.17,2.17,0,0,0,1.44-.42,1.64,1.64,0,0,0,0-2.34Z"/></g></g></svg>