<svg xmlns="http://www.w3.org/2000/svg" viewBox="0 0 127 50"><defs><style>.a{fill:#572ee5;fill-rule:evenodd;}.b{isolation:isolate;}.c{fill:#fff;}</style></defs><path class="a" d="M25,0h77a25,25,0,0,1,25,25h0a25,25,0,0,1-25,25H25A25,25,0,0,1,0,25H0A25,25,0,0,1,25,0Z"/><g class="b"><g class="b"><path class="c" d="M26.3271,30.5518a4.513,4.513,0,0,1-1.768-1.6778,4.8877,4.8877,0,0,1,0-4.8486,4.5169,4.5169,0,0,1,1.768-1.6768,5.6411,5.6411,0,0,1,4.667-.1884A4.2787,4.2787,0,0,1,32.6,23.3564l-1.352,1.2471A2.9088,2.9088,0,0,0,28.96,23.5381a3.0354,3.0354,0,0,0-1.5078.37,2.6348,2.6348,0,0,0-1.0337,1.0342,3.2565,3.2565,0,0,0,0,3.0156,2.6323,2.6323,0,0,0,1.0337,1.0332,3.0359,3.0359,0,0,0,1.5078.3711,2.8919,2.8919,0,0,0,2.2881-1.0791l1.352,1.248a4.22,4.22,0,0,1-1.6118,1.209,5.3505,5.3505,0,0,1-2.145.416A5.2342,5.2342,0,0,1,26.3271,30.5518Z"/><path class="c" d="M35.6743,30.5449a4.5336,4.5336,0,0,1-1.7812-1.6836,4.84,4.84,0,0,1,0-4.8232,4.5312,4.5312,0,0,1,1.7812-1.6826,5.6288,5.6288,0,0,1,5.1026,0,4.6413,4.6413,0,0,1,0,8.1894,5.63,5.63,0,0,1-5.1026,0Zm4.01-1.5537a2.6549,2.6549,0,0,0,1.02-1.0332,3.2526,3.2526,0,0,0,0-3.0156,2.6574,2.6574,0,0,0-1.02-1.0342,3.0493,3.0493,0,0,0-2.9121,0,2.66,2.66,0,0,0-1.02,1.0342,3.2557,3.2557,0,0,0,0,3.0156,2.6575,2.6575,0,0,0,1.02,1.0332,3.042,3.042,0,0,0,2.9121,0Z"/><path class="c" d="M53.0742,31l-.0127-5.46-2.6782,4.4981h-.9487L46.77,25.6572V31h-1.976V21.9h1.7417l3.4062,5.6543L53.2954,21.9h1.729L55.05,31Z"/><path class="c" d="M64.2539,29.31V31H57.2085V21.9H64.085V23.59H59.3013v1.9766h4.2251v1.6377H59.3013V29.31Z"/><path class="c" d="M74.2764,21.9V31H72.5479l-4.5372-5.5254V31h-2.08V21.9h1.7422l4.5244,5.5244V21.9Z"/><path class="c" d="M83.8057,29.2842V31H75.85V29.6348l4.9922-6.0186H75.9541V21.9H83.61v1.3642l-4.9786,6.02Z"/><path class="c" d="M91.15,29.05H86.9258L86.12,31H83.9619l4.0557-9.1h2.08L94.167,31h-2.21Zm-.6621-1.5986-1.4434-3.4844-1.4433,3.4844Z"/><path class="c" d="M100.9141,31l-1.7549-2.5352H97.2217V31H95.1162V21.9h3.9385a5.0571,5.0571,0,0,1,2.1.4023,3.1152,3.1152,0,0,1,1.3711,1.1446,3.1469,3.1469,0,0,1,.4814,1.7548,2.9648,2.9648,0,0,1-1.872,2.8731L103.1758,31Zm-.5332-6.9746a2.2151,2.2151,0,0,0-1.4434-.4092H97.2217v3.1719h1.7158a2.1881,2.1881,0,0,0,1.4434-.416,1.64,1.64,0,0,0,0-2.3467Z"/></g></g></svg>