<svg xmlns="http://www.w3.org/2000/svg" viewBox="0 0 127 50"><defs><style>.a{fill:none;stroke:#fff;}.b{isolation:isolate;}.c{fill:#fff;}</style></defs><path class="a" d="M25,.5h77A24.5,24.5,0,0,1,126.5,25h0A24.5,24.5,0,0,1,102,49.5H25A24.5,24.5,0,0,1,.5,25h0A24.5,24.5,0,0,1,25,.5Z"/><g class="b"><g class="b"><path class="c" d="M41.2314,26.3066h1.9239V29.999a5.4823,5.4823,0,0,1-1.7158.8584,6.6675,6.6675,0,0,1-1.9629.2988,5.33,5.33,0,0,1-2.5484-.6044,4.5009,4.5009,0,0,1-1.7744-1.6778,4.8884,4.8884,0,0,1,0-4.8486,4.4825,4.4825,0,0,1,1.7876-1.6768,5.42,5.42,0,0,1,2.5742-.6045,5.6348,5.6348,0,0,1,2.1709.4034,4.2947,4.2947,0,0,1,1.6377,1.17l-1.3515,1.248A3.129,3.129,0,0,0,39.62,23.5381a3.2068,3.2068,0,0,0-1.5473.3642A2.608,2.608,0,0,0,37.02,24.9287a3.2319,3.2319,0,0,0,0,3.0293,2.6616,2.6616,0,0,0,1.0464,1.0332,3.101,3.101,0,0,0,1.5274.3711,3.4067,3.4067,0,0,0,1.6381-.3906Z"/><path class="c" d="M50.9033,31l-1.7549-2.5352h-1.937V31H45.1055V21.9h3.9389a5.0581,5.0581,0,0,1,2.1.4023,3.1175,3.1175,0,0,1,1.3711,1.1446,3.151,3.151,0,0,1,.4815,1.7548,2.9666,2.9666,0,0,1-1.8721,2.8731L53.1655,31Zm-.5327-6.9746a2.2159,2.2159,0,0,0-1.4434-.4092H47.2114v3.1719h1.7158a2.1888,2.1888,0,0,0,1.4434-.416,1.6412,1.6412,0,0,0,0-2.3467Z"/><path class="c" d="M60.6528,29.05H56.4282L55.6221,31H53.4639L57.52,21.9H59.6L63.6689,31h-2.21ZM59.99,27.4512l-1.4433-3.4844L57.104,27.4512Z"/><path class="c" d="M72.5215,27.0938a2.2742,2.2742,0,0,1,.4424,1.4228,2.1018,2.1018,0,0,1-.93,1.84,4.7525,4.7525,0,0,1-2.71.6436h-4.706V21.9h4.4453a4.3518,4.3518,0,0,1,2.5547.6367,2.0161,2.0161,0,0,1,.8906,1.7285,2.1846,2.1846,0,0,1-1.209,2.002A2.4,2.4,0,0,1,72.5215,27.0938Zm-5.8106-3.6075v2.1446h2.0928a2.12,2.12,0,0,0,1.1836-.2725.9141.9141,0,0,0,.4023-.8066.8953.8953,0,0,0-.4023-.7989,2.1567,2.1567,0,0,0-1.1836-.2666Zm3.711,5.6543a.9326.9326,0,0,0,.4228-.8447q0-1.1308-1.6767-1.1309H66.7109v2.2491H69.168A2.3245,2.3245,0,0,0,70.4219,29.1406Z"/><path class="c" d="M80.5557,29.05H76.3311L75.5244,31H73.3662l4.0567-9.1h2.08L83.5713,31h-2.21Zm-.6631-1.5986-1.4434-3.4844-1.4424,3.4844Z"/><path class="c" d="M90.3184,31l-1.7549-2.5352H86.627V31H84.5205V21.9H88.46a5.06,5.06,0,0,1,2.1.4023,3.1208,3.1208,0,0,1,1.3711,1.1446,3.155,3.155,0,0,1,.4814,1.7548A2.9684,2.9684,0,0,1,90.54,28.0752L92.5811,31Zm-.5323-6.9746a2.2165,2.2165,0,0,0-1.4433-.4092H86.627v3.1719h1.7158a2.1894,2.1894,0,0,0,1.4433-.416,1.6423,1.6423,0,0,0,0-2.3467Z"/></g></g></svg>