<svg xmlns="http://www.w3.org/2000/svg" viewBox="0 0 127 50"><defs><style>.a{fill:#fff;fill-rule:evenodd;}.b{isolation:isolate;}</style></defs><path class="a" d="M25,0h77a25,25,0,0,1,25,25h0a25,25,0,0,1-25,25H25A25,25,0,0,1,0,25H0A25,25,0,0,1,25,0Z"/><g class="b"><g class="b"><path d="M25.7549,30.8633a4.8744,4.8744,0,0,1-1.6187-.7608l.7154-1.5859a4.8374,4.8374,0,0,0,1.3911.6895,5.2068,5.2068,0,0,0,1.6118.26,2.5749,2.5749,0,0,0,1.3262-.2666.8047.8047,0,0,0,.4287-.708.6789.6789,0,0,0-.2534-.54,1.918,1.918,0,0,0-.65-.3438q-.397-.13-1.0728-.2861a14.8016,14.8016,0,0,1-1.7026-.4942,2.7664,2.7664,0,0,1-1.1377-.7929,2.1423,2.1423,0,0,1-.4746-1.4561,2.5316,2.5316,0,0,1,.4292-1.4365,2.8844,2.8844,0,0,1,1.2934-1.0205,5.2826,5.2826,0,0,1,2.1123-.377,6.999,6.999,0,0,1,1.7031.208,5.0374,5.0374,0,0,1,1.4561.5977l-.65,1.6a5.0782,5.0782,0,0,0-2.522-.7158,2.3663,2.3663,0,0,0-1.3066.2861.8739.8739,0,0,0-.4224.7539.7379.7379,0,0,0,.4873.6963,7.6921,7.6921,0,0,0,1.4888.4483,14.8339,14.8339,0,0,1,1.7026.4941,2.8229,2.8229,0,0,1,1.1377.7793,2.0927,2.0927,0,0,1,.4746,1.4434,2.4887,2.4887,0,0,1-.4355,1.4238,2.9345,2.9345,0,0,1-1.3067,1.02,5.332,5.332,0,0,1-2.1191.3769A7.4334,7.4334,0,0,1,25.7549,30.8633Z"/><path d="M34.1528,30.0771a4.1541,4.1541,0,0,1-1.0854-3.081V21.9h2.1059V26.918q0,2.4448,2.0279,2.4443a1.9012,1.9012,0,0,0,1.5083-.5918,2.7572,2.7572,0,0,0,.52-1.8525V21.9h2.08v5.0957a4.3043,4.3043,0,0,1-7.1568,3.081Z"/><path d="M51.293,27.0938a2.2769,2.2769,0,0,1,.4419,1.4228,2.1025,2.1025,0,0,1-.9292,1.84A4.7543,4.7543,0,0,1,48.0952,31h-4.706V21.9H47.835a4.3515,4.3515,0,0,1,2.5546.6367,2.0172,2.0172,0,0,1,.8907,1.7285,2.1869,2.1869,0,0,1-1.209,2.002A2.4025,2.4025,0,0,1,51.293,27.0938Zm-5.8111-3.6075v2.1446h2.0933a2.1177,2.1177,0,0,0,1.1831-.2725.9134.9134,0,0,0,.4028-.8066.8946.8946,0,0,0-.4028-.7989,2.1548,2.1548,0,0,0-1.1831-.2666Zm3.7115,5.6543a.9336.9336,0,0,0,.4228-.8447q0-1.1308-1.6772-1.1309H45.4819v2.2491H47.939A2.3276,2.3276,0,0,0,49.1934,29.1406Z"/><path d="M53.3345,21.9H55.44V31H53.3345Z"/><path d="M63.396,31l-1.7549-2.5352h-1.937V31h-2.106V21.9h3.939a5.0581,5.0581,0,0,1,2.1.4023,3.1147,3.1147,0,0,1,1.3711,1.1446,3.1469,3.1469,0,0,1,.4815,1.7548,2.9647,2.9647,0,0,1-1.8721,2.8731L65.6582,31Zm-.5327-6.9746a2.2161,2.2161,0,0,0-1.4434-.4092H59.7041v3.1719H61.42a2.189,2.189,0,0,0,1.4434-.416,1.6414,1.6414,0,0,0,0-2.3467Z"/><path d="M76.9814,26.3066h1.9239V29.999a5.4931,5.4931,0,0,1-1.7158.8584,6.67,6.67,0,0,1-1.9629.2988,5.3316,5.3316,0,0,1-2.5489-.6044,4.5042,4.5042,0,0,1-1.7744-1.6778,4.8884,4.8884,0,0,1,0-4.8486,4.4871,4.4871,0,0,1,1.7881-1.6768,5.419,5.419,0,0,1,2.5742-.6045,5.6366,5.6366,0,0,1,2.1709.4034,4.3024,4.3024,0,0,1,1.6377,1.17l-1.3515,1.248a3.1293,3.1293,0,0,0-2.3536-1.0273,3.2037,3.2037,0,0,0-1.5468.3642A2.6049,2.6049,0,0,0,72.77,24.9287a3.2319,3.2319,0,0,0,0,3.0293,2.66,2.66,0,0,0,1.0459,1.0332,3.1023,3.1023,0,0,0,1.5274.3711,3.4087,3.4087,0,0,0,1.6386-.3906Z"/><path d="M80.8555,21.9h2.1054V31H80.8555Z"/><path d="M87.2246,23.59v2.4053h4.2119v1.6895H87.2246V31H85.1191V21.9h6.877V23.59Z"/><path d="M95.1875,30.5449a4.5312,4.5312,0,0,1-1.7813-1.6836,4.8406,4.8406,0,0,1,0-4.8232,4.5288,4.5288,0,0,1,1.7813-1.6826,5.6286,5.6286,0,0,1,5.1025,0,4.6417,4.6417,0,0,1,0,8.1894,5.6294,5.6294,0,0,1-5.1025,0Zm4.01-1.5537a2.6549,2.6549,0,0,0,1.02-1.0332,3.2487,3.2487,0,0,0,0-3.0156,2.6574,2.6574,0,0,0-1.02-1.0342,3.0493,3.0493,0,0,0-2.9121,0,2.6638,2.6638,0,0,0-1.0206,1.0342,3.2565,3.2565,0,0,0,0,3.0156,2.6612,2.6612,0,0,0,1.0206,1.0332,3.042,3.042,0,0,0,2.9121,0Z"/></g></g></svg>