<svg xmlns="http://www.w3.org/2000/svg" viewBox="0 0 127 50"><defs><style>.a{fill:#572ee5;fill-rule:evenodd;}.b{isolation:isolate;}.c{fill:#fff;}</style></defs><path class="a" d="M25,0h77a25,25,0,0,1,25,25h0a25,25,0,0,1-25,25H25A25,25,0,0,1,0,25H0A25,25,0,0,1,25,0Z"/><g class="b"><g class="b"><path class="c" d="M42.167,21.9,38.228,31h-2.08l-3.9262-9.1h2.2754l2.7685,6.5,2.8081-6.5Z"/><path class="c" d="M49.9668,29.31V31H42.9209V21.9h6.877V23.59H45.0137v1.9766h4.2251v1.6377H45.0137V29.31Z"/><path class="c" d="M57.4414,31l-1.7549-2.5352H53.75V31H51.6436V21.9h3.9389a5.0581,5.0581,0,0,1,2.1.4023,3.1175,3.1175,0,0,1,1.3711,1.1446,3.151,3.151,0,0,1,.4815,1.7548,2.9666,2.9666,0,0,1-1.8721,2.8731L59.7036,31Zm-.5327-6.9746a2.2161,2.2161,0,0,0-1.4434-.4092H53.75v3.1719h1.7158a2.189,2.189,0,0,0,1.4434-.416,1.6414,1.6414,0,0,0,0-2.3467Z"/><path class="c" d="M73.1582,31l-.0127-5.46-2.6777,4.4981h-.9492l-2.6651-4.3809V31H64.8779V21.9h1.7412l3.4063,5.6543L73.38,21.9h1.7285l.0264,9.1Z"/><path class="c" d="M83.2852,29.05H79.0605L78.2539,31H76.0957l4.0566-9.1h2.08L86.3008,31h-2.21Zm-.6631-1.5986-1.4434-3.4844-1.4424,3.4844Zm-.8584-8.1641h2.1845l-2.3535,1.8721H80.0088Z"/><path class="c" d="M88.1533,30.8633a4.866,4.866,0,0,1-1.6181-.7608l.7148-1.5859a4.8405,4.8405,0,0,0,1.3916.6895,5.2061,5.2061,0,0,0,1.6113.26,2.5731,2.5731,0,0,0,1.3262-.2666.8037.8037,0,0,0,.4287-.708.6785.6785,0,0,0-.2529-.54,1.9159,1.9159,0,0,0-.65-.3438q-.3971-.13-1.0723-.2861a14.85,14.85,0,0,1-1.7031-.4942,2.7664,2.7664,0,0,1-1.1377-.7929,2.1423,2.1423,0,0,1-.4746-1.4561,2.5328,2.5328,0,0,1,.43-1.4365,2.8853,2.8853,0,0,1,1.293-1.0205,5.2819,5.2819,0,0,1,2.1123-.377,6.9972,6.9972,0,0,1,1.7031.208,5.0368,5.0368,0,0,1,1.456.5977l-.6494,1.6a5.0784,5.0784,0,0,0-2.5224-.7158,2.3676,2.3676,0,0,0-1.3067.2861.8747.8747,0,0,0-.4219.7539.738.738,0,0,0,.4874.6963,7.6927,7.6927,0,0,0,1.4882.4483,14.8484,14.8484,0,0,1,1.7032.4941,2.827,2.827,0,0,1,1.1377.7793,2.0927,2.0927,0,0,1,.4746,1.4434,2.4881,2.4881,0,0,1-.4356,1.4238,2.94,2.94,0,0,1-1.3066,1.02,5.3343,5.3343,0,0,1-2.1192.3769A7.4369,7.4369,0,0,1,88.1533,30.8633Z"/></g></g></svg>