<svg xmlns="http://www.w3.org/2000/svg" viewBox="0 0 127 50"><defs><style>.a{fill:#fff;fill-rule:evenodd;}.b{isolation:isolate;}</style></defs><path class="a" d="M25,0h77a25,25,0,0,1,25,25h0a25,25,0,0,1-25,25H25A25,25,0,0,1,0,25H0A25,25,0,0,1,25,0Z"/><g class="b"><g class="b"><path d="M39.5669,26.3066h1.9238V29.999a5.4812,5.4812,0,0,1-1.7158.8584,6.6675,6.6675,0,0,1-1.9629.2988,5.33,5.33,0,0,1-2.5483-.6044,4.5009,4.5009,0,0,1-1.7744-1.6778,4.8877,4.8877,0,0,1,0-4.8486,4.4825,4.4825,0,0,1,1.7876-1.6768,5.42,5.42,0,0,1,2.5742-.6045,5.6352,5.6352,0,0,1,2.1709.4034,4.2947,4.2947,0,0,1,1.6377,1.17l-1.3516,1.248a3.1289,3.1289,0,0,0-2.353-1.0273,3.2072,3.2072,0,0,0-1.5474.3642,2.6077,2.6077,0,0,0-1.0527,1.0264,3.2311,3.2311,0,0,0,0,3.0293,2.6616,2.6616,0,0,0,1.0464,1.0332,3.1006,3.1006,0,0,0,1.5273.3711,3.4071,3.4071,0,0,0,1.6382-.3906Z"/><path d="M49.2388,31l-1.7549-2.5352h-1.937V31h-2.106V21.9H47.38a5.0587,5.0587,0,0,1,2.1.4023,3.1175,3.1175,0,0,1,1.3711,1.1446,3.1509,3.1509,0,0,1,.4814,1.7548,2.9667,2.9667,0,0,1-1.872,2.8731L51.501,31Zm-.5327-6.9746a2.2161,2.2161,0,0,0-1.4434-.4092H45.5469v3.1719h1.7158a2.189,2.189,0,0,0,1.4434-.416,1.6414,1.6414,0,0,0,0-2.3467Z"/><path d="M58.9883,29.05H54.7637L53.9575,31H51.7993l4.0562-9.1h2.08L62.0044,31h-2.21Zm-.6626-1.5986-1.4434-3.4844L55.44,27.4512Z"/><path d="M70.8574,27.0938A2.2742,2.2742,0,0,1,71.3,28.5166a2.1018,2.1018,0,0,1-.93,1.84A4.7519,4.7519,0,0,1,67.66,31H62.9536V21.9h4.4458a4.3516,4.3516,0,0,1,2.5547.6367,2.0159,2.0159,0,0,1,.8906,1.7285,2.1842,2.1842,0,0,1-1.209,2.002A2.4,2.4,0,0,1,70.8574,27.0938Zm-5.8105-3.6075v2.1446H67.14a2.1193,2.1193,0,0,0,1.1836-.2725.9142.9142,0,0,0,.4024-.8066.8953.8953,0,0,0-.4024-.7989,2.1564,2.1564,0,0,0-1.1836-.2666Zm3.7109,5.6543a.9326.9326,0,0,0,.4229-.8447q0-1.1308-1.6768-1.1309h-2.457v2.2491h2.457A2.3242,2.3242,0,0,0,68.7578,29.1406Z"/><path d="M78.8916,29.05H74.667L73.86,31H71.7021l4.0567-9.1h2.08L81.9072,31h-2.21Zm-.6631-1.5986-1.4433-3.4844-1.4424,3.4844Z"/><path d="M88.6543,31l-1.7549-2.5352H84.9629V31H82.8564V21.9h3.94a5.06,5.06,0,0,1,2.1.4023,3.12,3.12,0,0,1,1.3711,1.1446,3.155,3.155,0,0,1,.4814,1.7548,2.9682,2.9682,0,0,1-1.872,2.8731L90.917,31Zm-.5322-6.9746a2.217,2.217,0,0,0-1.4434-.4092H84.9629v3.1719h1.7158a2.19,2.19,0,0,0,1.4434-.416,1.6426,1.6426,0,0,0,0-2.3467Z"/></g></g></svg>