<?xml version="1.0" encoding="utf-8"?>
<!-- Generator: Adobe Illustrator 23.0.0, SVG Export Plug-In . SVG Version: 6.00 Build 0)  -->
<svg version="1.1" id="Capa_1" xmlns="http://www.w3.org/2000/svg" xmlns:xlink="http://www.w3.org/1999/xlink" x="0px" y="0px"
	 viewBox="0 0 53 49" style="enable-background:new 0 0 53 49;" xml:space="preserve">
<style type="text/css">
	.st0{fill-rule:evenodd;clip-rule:evenodd;fill:#5ED7C6;}
	.st1{filter:url(#Adobe_OpacityMaskFilter);}
	.st2{fill-rule:evenodd;clip-rule:evenodd;fill:#FFFFFF;}
	.st3{mask:url(#mask-2_1_);enable-background:new    ;}
	.st4{fill:#FFFFFF;}
</style>
<title>logo-mobile-modo-noct</title>
<desc>Created with Sketch.</desc>
<g>
	<g transform="translate(-347.000000, -2414.000000)">
		<g id="logo-mobile-modo-noct" transform="translate(347.000000, 2414.000000)">
			<g id="Group-5">
				<polygon id="Fill-1" class="st0" points="0,0 0,48.8 48.8,48.8 48.8,38.3 45.3,38.3 45.3,45.3 3.5,45.3 3.5,3.5 34.9,3.5 
					34.9,13.9 45.3,13.9 45.3,20.9 48.8,20.9 48.8,10.5 38.3,0 				"/>
				<g id="Group-4" transform="translate(7.000000, 16.000000)">
					<g id="Clip-3">
					</g>
					<defs>
						<filter id="Adobe_OpacityMaskFilter" filterUnits="userSpaceOnUse" x="1.6" y="8.5" width="44.4" height="11.7">
							<feColorMatrix  type="matrix" values="1 0 0 0 0  0 1 0 0 0  0 0 1 0 0  0 0 0 1 0"/>
						</filter>
					</defs>
					<mask maskUnits="userSpaceOnUse" x="1.6" y="8.5" width="44.4" height="11.7" id="mask-2_1_">
						<g class="st1">
							<polygon id="path-1_1_" class="st2" points="0.8,0.9 48.5,0.9 48.5,20.5 0.8,20.5 							"/>
						</g>
					</mask>
					<g class="st3">
						<path class="st4" d="M11.2,18.6c-0.4,0.5-1,0.8-1.9,1.1s-1.7,0.4-2.7,0.4c-1.5,0-2.7-0.5-3.6-1.4S1.7,16.6,1.6,15l0-1
							c0-1.1,0.2-2.1,0.6-2.9c0.4-0.8,1-1.5,1.7-1.9c0.7-0.5,1.6-0.7,2.6-0.7c1.4,0,2.5,0.3,3.3,1c0.8,0.6,1.2,1.6,1.4,2.9H8.5
							c-0.1-0.6-0.3-1.1-0.6-1.4s-0.8-0.4-1.3-0.4c-0.7,0-1.2,0.3-1.6,0.9s-0.6,1.4-0.6,2.5v0.7c0,1.1,0.2,2,0.6,2.6
							C5.4,17.8,6,18,6.8,18c0.7,0,1.2-0.2,1.6-0.5v-1.8H6.5v-1.9h4.6V18.6z"/>
						<path class="st4" d="M15.7,20H13V8.6h2.7V20z"/>
						<path class="st4" d="M24.8,15.5h-4.4V20h-2.7V8.6h7.6v2.1h-4.9v2.6h4.4V15.5z"/>
						<path class="st4" d="M36,14.5c0,1.1-0.2,2.1-0.6,2.9c-0.4,0.9-1,1.5-1.8,2S32,20.2,31,20.2s-1.8-0.2-2.6-0.7s-1.3-1.1-1.8-1.9
							c-0.4-0.8-0.6-1.8-0.7-2.9v-0.6c0-1.1,0.2-2.1,0.6-2.9c0.4-0.9,1-1.5,1.8-2C29.2,8.7,30,8.5,31,8.5c1,0,1.8,0.2,2.6,0.7
							c0.8,0.5,1.3,1.1,1.8,2C35.8,12,36,12.9,36,14V14.5z M33.2,14.1c0-1.1-0.2-2-0.6-2.6c-0.4-0.6-0.9-0.9-1.6-0.9
							c-1.4,0-2.1,1-2.2,3.1l0,0.8c0,1.1,0.2,2,0.6,2.6c0.4,0.6,0.9,0.9,1.6,0.9c0.7,0,1.2-0.3,1.6-0.9s0.6-1.4,0.6-2.5V14.1z"/>
						<path class="st4" d="M43.3,17c0-0.4-0.1-0.7-0.4-0.9c-0.3-0.2-0.8-0.5-1.5-0.7c-0.7-0.2-1.3-0.5-1.8-0.7
							c-1.5-0.7-2.2-1.7-2.2-3c0-0.6,0.2-1.2,0.6-1.7s0.9-0.9,1.6-1.1s1.4-0.4,2.3-0.4c0.8,0,1.6,0.1,2.2,0.4s1.2,0.7,1.5,1.2
							S46,11.3,46,12h-2.7c0-0.5-0.1-0.8-0.4-1.1c-0.3-0.3-0.7-0.4-1.2-0.4c-0.5,0-0.9,0.1-1.2,0.3c-0.3,0.2-0.4,0.5-0.4,0.8
							c0,0.3,0.2,0.6,0.5,0.8s0.9,0.5,1.6,0.7c0.8,0.3,1.4,0.5,1.9,0.8c1.2,0.7,1.8,1.7,1.8,2.9c0,1-0.4,1.8-1.1,2.3
							s-1.8,0.9-3.1,0.9c-0.9,0-1.8-0.2-2.5-0.5c-0.7-0.3-1.3-0.8-1.7-1.4c-0.4-0.6-0.6-1.2-0.6-2h2.8c0,0.6,0.2,1.1,0.5,1.3
							c0.3,0.3,0.8,0.4,1.5,0.4c0.5,0,0.8-0.1,1.1-0.3C43.1,17.6,43.3,17.3,43.3,17z"/>
					</g>
				</g>
			</g>
		</g>
	</g>
</g>
</svg>
